<svg id="Icons" height="512" viewBox="0 0 60 60" width="512" xmlns="http://www.w3.org/2000/svg"><g fill="#49508e"><path d="m21.579 24.388a.5.5 0 0 1 -.25-.933l2.636-1.521a.5.5 0 0 1 .5.865l-2.636 1.521a.5.5 0 0 1 -.25.068z"/><path d="m17.249 12.09a.5.5 0 0 1 -.25-.933l.961-.554a.5.5 0 1 1 .5.865l-.961.554a.5.5 0 0 1 -.25.068z"/><path d="m18.79 26.465a.5.5 0 0 1 -.346-.861l2.405-2.3-3.549 2.049a.5.5 0 0 1 -.571-.817l4.411-3.693-6.9 3.981a.5.5 0 0 1 -.547-.835l3.249-2.4-3.849 2.223a.5.5 0 0 1 -.533-.845l.6-.412-.032.018a.5.5 0 0 1 -.545-.836l3.939-2.881-3.578 2.066a.5.5 0 0 1 -.547-.834l3.57-2.655-4.477 2.584a.5.5 0 0 1 -.549-.834l2.337-1.738-1.988 1.148a.5.5 0 0 1 -.563-.822l3.553-2.871-1.053.609a.5.5 0 0 1 -.685-.679l.509-.9a.534.534 0 0 1 -.478-.248.5.5 0 0 1 .183-.682l1.341-.775a.5.5 0 0 1 .684.679l-.464.82 5.032-2.9a.5.5 0 0 1 .563.823l-3.553 2.866 3.889-2.245a.5.5 0 0 1 .549.834l-2.339 1.738 4.482-2.588a.5.5 0 0 1 .548.834l-3.57 2.655 4.134-2.387a.5.5 0 0 1 .545.836l-3.94 2.881 3.068-1.77a.5.5 0 0 1 .533.845l-.6.409.464-.268a.5.5 0 0 1 .547.835l-3.251 2.4 4.196-2.422a.5.5 0 0 1 .572.816l-4.411 3.692 2.166-1.25a.5.5 0 0 1 .6.794l-4.306 4.121a.5.5 0 0 1 -.232.567l-.959.553a.49.49 0 0 1 -.254.072z"/><path d="m44.579 47.388a.5.5 0 0 1 -.25-.933l2.636-1.521a.5.5 0 0 1 .5.865l-2.636 1.521a.5.5 0 0 1 -.25.068z"/><path d="m40.249 35.09a.5.5 0 0 1 -.25-.933l.961-.554a.5.5 0 1 1 .5.865l-.961.554a.5.5 0 0 1 -.25.068z"/><path d="m41.79 49.465a.5.5 0 0 1 -.346-.861l2.382-2.275-3.526 2.034a.5.5 0 0 1 -.565-.821l3.95-3.2-5.5 3.176a.5.5 0 0 1 -.55-.833l2.932-2.2-4.323 2.5a.5.5 0 0 1 -.552-.831l4.508-3.409-3.807 2.2a.5.5 0 0 1 -.556-.828l4.752-3.663-5.15 2.973a.5.5 0 0 1 -.565-.821l3.807-3.072-4.4 2.537a.5.5 0 0 1 -.547-.835l2.111-1.555a.473.473 0 0 1 -.444-.222.5.5 0 0 1 .114-.675l.5-.383a.5.5 0 0 1 -.535-.756l.455-.711a.5.5 0 0 1 -.179-.934l1.341-.775a.5.5 0 0 1 .671.7l-.333.52 4.77-2.754a.5.5 0 0 1 .553.83l-.37.282.311-.179a.5.5 0 0 1 .547.835l-1.718 1.265 2.211-1.275a.5.5 0 0 1 .565.821l-3.8 3.071 6.08-3.511a.5.5 0 0 1 .556.828l-4.752 3.664 4.312-2.486a.5.5 0 0 1 .552.831l-4.5 3.4 4.525-2.612a.5.5 0 0 1 .55.833l-2.935 2.2 3.791-2.188a.5.5 0 0 1 .564.821l-3.949 3.2 1.639-.945a.5.5 0 0 1 .595.794l-4.3 4.105a.5.5 0 0 1 -.232.565l-.959.553a.49.49 0 0 1 -.251.072z"/></g><path d="m50.621 49.493a.5.5 0 0 1 -.32-.884l3.841-3.2-1.414.817a.5.5 0 0 1 -.571-.818l1.927-1.6-.8.463a.5.5 0 0 1 -.57-.817l1.244-1.037-.477.276a.5.5 0 0 1 -.565-.822l.45-.364a.5.5 0 0 1 -.456-.864l.662-.556-.215.123a.5.5 0 0 1 -.567-.819l.219-.179a.508.508 0 0 1 -.526-.189.5.5 0 0 1 .066-.664l1.2-1.1-1.023.591a.5.5 0 0 1 -.622-.767l1.988-2.211-2.192 1.26a.5.5 0 0 1 -.613-.778l1.622-1.7-1.945 1.123a.5.5 0 0 1 -.608-.781l1.474-1.518-1.952 1.122a.5.5 0 0 1 -.6-.789l1.252-1.231-1.818 1.05a.5.5 0 0 1 -.588-.8l.9-.822-1.519.876a.5.5 0 0 1 -.577-.811l.563-.488-1.284.741a.5.5 0 0 1 -.568-.818l.262-.217-1.136.656a.5.5 0 0 1 -.579-.808l1.211-1.06-2.911 1.68a.5.5 0 0 1 -.561-.824l.842-.669-3.027 1.746a.5.5 0 0 1 -.568-.819l2.4-1.984-7.345 4.24a.5.5 0 1 1 -.5-.865l12.5-7.218a.5.5 0 0 1 .568.819l-2.4 1.986 3.687-2.128a.5.5 0 0 1 .562.824l-.839.667 1.516-.875a.5.5 0 0 1 .579.809l-1.208 1.057 1.9-1.1a.5.5 0 0 1 .568.818l-.262.216.628-.362a.5.5 0 0 1 .578.81l-.565.489.926-.534a.5.5 0 0 1 .588.8l-.9.825 1.279-.737a.5.5 0 0 1 .6.789l-1.251 1.231 1.656-.956a.5.5 0 0 1 .609.782l-1.475 1.518 1.846-1.065a.5.5 0 0 1 .612.777l-1.622 1.7 1.907-1.1a.5.5 0 0 1 .623.766l-1.989 2.208 2.236-1.29a.5.5 0 0 1 .587.8l-1.2 1.1 1.116-.644a.5.5 0 0 1 .568.819l-.164.134a.5.5 0 0 1 .488.855l-.664.558.384-.221a.5.5 0 0 1 .564.821l-.371.3h.007a.5.5 0 0 1 .57.816l-1.243 1.036.821-.473a.5.5 0 0 1 .571.817l-1.927 1.6 1.389-.8a.5.5 0 0 1 .57.816l-3.84 3.2 3.068-1.771a.5.5 0 1 1 .5.865l-8.108 4.682a.491.491 0 0 1 -.249.073z" fill="#66caa4"/><path d="m27.621 27.636a.5.5 0 0 1 -.293-.906l.739-.535a.5.5 0 0 1 -.3-.876l3.884-3.39-2.5 1.443a.5.5 0 0 1 -.581-.808l3.128-2.753-2.029 1.171a.5.5 0 0 1 -.557-.828l.6-.466a.5.5 0 0 1 -.438-.866l1.859-1.622-1.206.7a.5.5 0 0 1 -.592-.8l2.043-1.913-1.605.926a.5.5 0 0 1 -.586-.8l1.382-1.255-1.136.656a.5.5 0 0 1 -.621-.768l2.11-2.335-2.263 1.306a.5.5 0 0 1 -.581-.808l.625-.55-.668.384a.5.5 0 0 1 -.595-.795l1.109-1.048-1.383.8a.5.5 0 0 1 -.585-.8l.722-.652-1.028.592a.5.5 0 0 1 -.578-.809l.406-.354-.756.437a.5.5 0 0 1 -.613-.778l1.566-1.649-2.552 1.469a.5.5 0 0 1 -.592-.8l1.18-1.109-2.192 1.27a.5.5 0 0 1 -.572-.816l.491-.413-1.478.854a.5.5 0 0 1 -.566-.821l.437-.356-1.756 1.014a.5.5 0 0 1 -.572-.815l1.328-1.123-4.237 2.447a.5.5 0 1 1 -.5-.866l9.09-5.248a.5.5 0 0 1 .572.815l-1.327 1.122 2.287-1.321a.5.5 0 0 1 .566.821l-.436.355 1.032-.6a.5.5 0 0 1 .571.815l-.493.419 1-.577a.5.5 0 0 1 .592.8l-1.182 1.107 1.809-1.042a.5.5 0 0 1 .612.777l-1.561 1.635 2.24-1.293a.5.5 0 0 1 .578.81l-.409.356.628-.362a.5.5 0 0 1 .585.8l-.722.652.946-.546a.5.5 0 0 1 .6.8l-1.112 1.055 1.342-.772a.5.5 0 0 1 .581.8l-.624.55.689-.4a.5.5 0 0 1 .621.768l-2.11 2.335 2.42-1.4a.5.5 0 0 1 .585.8l-1.38 1.255 1.337-.773a.5.5 0 0 1 .592.8l-2.045 1.925 1.935-1.116a.5.5 0 0 1 .578.81l-1.858 1.616 1.578-.911a.5.5 0 0 1 .556.828l-.467.362.038-.021a.5.5 0 0 1 .58.807l-3.133 2.756 2.591-1.5a.5.5 0 0 1 .579.81l-3.882 3.399 3.085-1.78a.5.5 0 0 1 .543.838l-.536.388a.5.5 0 0 1 .279.931l-7.788 4.5a.493.493 0 0 1 -.25.059z" fill="#66caa4"/><path d="m40.739 59.416a.5.5 0 0 1 -.283-.912l6.793-4.664-8.94 5.16a.5.5 0 0 1 -.519-.855l1.029-.655-1.969 1.138a.5.5 0 0 1 -.566-.82l1.287-1.048-2.284 1.318a.5.5 0 0 1 -.565-.821l.579-.47-1.248.721a.5.5 0 0 1 -.564-.822l.118-.1-.6.346a.5.5 0 0 1 -.579-.81l.765-.668-1.308.755a.5.5 0 0 1 -.63-.758l1.818-2.122-2.783 1.606a.5.5 0 0 1 -.606-.783l1.416-1.434-1.932 1.115a.5.5 0 0 1 -.626-.763l1.772-2.015-2.367 1.366a.5.5 0 0 1 -.585-.8l.76-.685-.892.514a.5.5 0 0 1 -.615-.774l1.839-1.959-2.141 1.236a.5.5 0 0 1 -.607-.783l1.945-1.974-2.076 1.2a.5.5 0 0 1 -.57-.817l.624-.52-.448.258a.5.5 0 0 1 -.573-.815l1.119-.945-.9.516a.5.5 0 0 1 -.577-.81l1.86-1.609-1.558.9a.5.5 0 0 1 -.553-.83l.279-.214a.507.507 0 0 1 -.5-.205.5.5 0 0 1 .087-.67l2.539-2.137-2.004 1.153a.5.5 0 0 1 -.576-.811l3.6-3.1-2.844 1.641a.5.5 0 0 1 -.528-.849l8.832-5.907-7.932 4.579a.5.5 0 0 1 -.535-.843l8.371-5.826-8.788 5.078a.5.5 0 0 1 -.535-.843l5.78-4.006-9.5 5.486a.5.5 0 0 1 -.532-.846l4.876-3.333-7.191 4.152a.5.5 0 0 1 -.527-.849l5.351-3.556-7.029 4.058a.5.5 0 0 1 -.546-.835l1.9-1.4-3.038 1.749a.5.5 0 0 1 -.581-.808l2.286-2.019-3.539 2.037a.5.5 0 0 1 -.621-.768l2.156-2.383-3.473 2.01a.5.5 0 0 1 -.577-.811l.723-.626-1.175.678a.5.5 0 0 1 -.606-.783l1.489-1.517-2.131 1.23a.5.5 0 0 1 -.6-.794l1.122-1.073-1.519.877a.5.5 0 0 1 -.578-.811l.366-.317-.517.3a.5.5 0 0 1 -.621-.768l1.754-1.944-2.192 1.268a.5.5 0 0 1 -.586-.8l.823-.747-.877.506a.5.5 0 0 1 -.6-.793l1.337-1.284-1.387.8a.5.5 0 0 1 -.62-.769l2.222-2.453-2.332 1.347a.5.5 0 0 1 -.6-.791l1.991-1.939-1.846 1.064a.5.5 0 0 1 -.567-.819l.638-.526-.281.162a.5.5 0 0 1 -.6-.794l2.967-2.832-2.541 1.463a.5.5 0 0 1 -.58-.809l3.642-3.193-2.959 1.708a.5.5 0 0 1 -.54-.84l.929-.661-.167.1a.5.5 0 0 1 -.53-.848l8.119-5.459-6.988 4.039a.5.5 0 0 1 -.54-.84l7.845-5.584-5.947 3.433a.5.5 0 0 1 -.529-.849l1.475-.985a.5.5 0 0 1 -.234-.9l2.754-2.033a.491.491 0 0 1 -.14-.156.5.5 0 0 1 .182-.686l5.016-2.9a.5.5 0 0 1 .547.835l-.65.48 3.9-2.25a.5.5 0 0 1 .528.849l-.178.119 1.929-1.104a.5.5 0 0 1 .54.84l-7.848 5.578 10.562-6.098a.5.5 0 0 1 .529.848l-11.094 7.455a.5.5 0 0 1 .046.844l-2.269 1.615a.5.5 0 0 1 .188.855l-3.642 3.194 1.728-1a.5.5 0 0 1 .6.794l-2.961 2.837 1.937-1.119a.5.5 0 0 1 .567.819l-.642.528.073-.041a.5.5 0 0 1 .6.791l-1.991 1.94 1.628-.94a.5.5 0 0 1 .62.769l-2.225 2.453 2.192-1.265a.5.5 0 0 1 .6.793l-1.338 1.281 1.355-.782a.5.5 0 0 1 .586.8l-.826.75.9-.517a.5.5 0 0 1 .621.768l-1.752 1.939 2.278-1.314a.5.5 0 0 1 .578.81l-.367.319.611-.353a.5.5 0 0 1 .6.794l-1.121 1.073 1.709-.987a.5.5 0 0 1 .606.783l-1.493 1.517 2.537-1.465a.5.5 0 0 1 .577.811l-.724.627 1.691-.973a.5.5 0 0 1 .621.769l-2.156 2.381 5.1-2.943a.5.5 0 0 1 .581.808l-2.286 2.019 6.423-3.708a.5.5 0 0 1 .547.835l-1.9 1.4 13.104-7.561a.5.5 0 0 1 .526.849l-5.355 3.551 4.792-2.766a.5.5 0 0 1 .532.845l-4.878 3.334 8.618-4.974a.5.5 0 0 1 .536.844l-5.779 4 8.563-4.943a.5.5 0 0 1 .535.843l-8.368 5.824 10.8-6.233a.5.5 0 0 1 .528.848l-13.87 9.278c.012.013.023.028.035.044a.5.5 0 0 1 -.082.668l-3.6 3.1 2.278-1.312a.5.5 0 0 1 .572.815l-2.535 2.134 1.512-.873a.5.5 0 0 1 .553.83l-.494.377h.007a.5.5 0 0 1 .327.878l-1.862 1.61 1.184-.683a.5.5 0 0 1 .572.814l-1.118.945.618-.356a.5.5 0 0 1 .571.816l-.623.521.256-.148a.5.5 0 0 1 .606.784l-1.945 1.972 1.874-1.081a.5.5 0 0 1 .614.776l-1.839 1.958 2.058-1.189a.5.5 0 0 1 .585.8l-.758.684.9-.519a.5.5 0 0 1 .626.763l-1.772 2.02 2.481-1.432a.5.5 0 0 1 .607.783l-1.412 1.437 2.132-1.231a.5.5 0 0 1 .63.758l-1.819 2.123 3.219-1.858a.5.5 0 0 1 .579.81l-.764.666 1.732-1a.5.5 0 0 1 .563.822l-.121.1 1.145-.661a.5.5 0 0 1 .566.821l-.579.469 2.23-1.287a.5.5 0 0 1 .566.82l-1.287 1.048 16.469-9.509a.5.5 0 0 1 .519.854l-1.033.659.108-.063a.5.5 0 0 1 .533.845l-6.794 4.665 5.221-3.014a.5.5 0 0 1 .527.849l-1.535 1.024a.508.508 0 0 1 .525.21.5.5 0 0 1 -.111.675l-3.289 2.532a.5.5 0 0 1 .311.236.5.5 0 0 1 -.183.682l-5.306 3.064a.5.5 0 0 1 -.554-.829l2.443-1.882-6.371 3.679a.5.5 0 0 1 -.527-.849l1.252-.836-2.983 1.722a.494.494 0 0 1 -.251.066z" fill="#66caa4"/><path d="m47.474 56.7a.5.5 0 0 1 -.294-.9l2.07-1.5-3.866 2.231a.5.5 0 0 1 -.53-.847l.722-.486-1.8 1.04a.5.5 0 0 1 -.525-.849l.822-.543-1.71.987a.5.5 0 0 1 -.729-.574l.3-1.031-1.478.852a.5.5 0 0 1 -.75-.415l-.023-.68-.637.368a.5.5 0 0 1 -.729-.289l-.156-.519-.231.133a.5.5 0 0 1 -.588-.065l-1.2-1.1a.494.494 0 0 1 -.481-.1l-1.061-.913a.468.468 0 0 1 -.2-.19.486.486 0 0 1 .174-.673l.03-.017a.5.5 0 0 1 .572.056l.876.753a.5.5 0 0 1 .505.1l1.192 1.095.461-.266a.5.5 0 0 1 .728.289l.157.519.805-.466a.5.5 0 0 1 .75.415l.024.68 1.84-1.062a.5.5 0 0 1 .729.575l-.3 1.031 15.216-8.785a.5.5 0 0 1 .526.849l-.914.6a.5.5 0 0 1 .461.881l-1.04.7a.5.5 0 0 1 .393.894l-2.071 1.5.281-.162a.5.5 0 0 1 .567.82l-2.034 1.67a.5.5 0 0 1 -.034.844l-3.383 1.96a.5.5 0 0 1 -.567-.819l.683-.562-3.3 1.908a.491.491 0 0 1 -.253.063z" fill="#56b38f"/><path d="m49.362 50.764a.5.5 0 0 1 -.293-.906l2.451-1.775a.5.5 0 0 1 -.249-.895l1.311-1a.505.505 0 0 1 -.518-.209.5.5 0 0 1 .106-.673l.937-.735a.5.5 0 0 1 -.48-.855l1.685-1.437-.868.5a.5.5 0 0 1 -.578-.81l1.4-1.213-.824.474a.5.5 0 0 1 -.571-.815l.64-.536-.223.128a.5.5 0 0 1 -.618-.772l2.275-2.47-2.19 1.264a.5.5 0 0 1 -.57-.816l.158-.133a.5.5 0 0 1 -.586-.8l1.536-1.535-1.684.972a.5.5 0 0 1 -.627-.761l1.906-2.192-2.468 1.424a.5.5 0 0 1 -.59-.8l.928-.858-1.276.736a.5.5 0 0 1 -.578-.809l.461-.4-.834.481a.5.5 0 0 1 -.573-.814l.248-.21-.7.4a.5.5 0 0 1 -.621-.768l1.849-2.046-3.447 1.989a.5.5 0 0 1 -.617-.773l2.11-2.282-4.78 2.766a.5.5 0 0 1 -.556-.828l.556-.437-2.757 1.592a.5.5 0 0 1 -.572-.814l2.829-2.385-8.649 4.993a.5.5 0 0 1 -.561-.825l5.138-4.062-3.633 2.1a.5.5 0 0 1 -.593-.8l2.65-2.5-1.233.711a.5.5 0 0 1 -.669-.7l.631-.97a.5.5 0 0 1 .016-.856l.97-.561a.5.5 0 0 1 .669.705l-.31.479 3.137-1.812a.5.5 0 0 1 .593.8l-2.649 2.5 5.863-3.385a.5.5 0 0 1 .561.826l-5.131 4.053 7.588-4.381a.5.5 0 0 1 .572.815l-2.828 2.384 4.314-2.49a.5.5 0 0 1 .556.828l-.561.434 1.2-.692a.5.5 0 0 1 .617.773l-2.11 2.281 3.329-1.921a.5.5 0 0 1 .621.768l-1.847 2.05 2.774-1.6a.5.5 0 0 1 .573.815l-.249.21.487-.281a.5.5 0 0 1 .578.81l-.46.4.684-.394a.5.5 0 0 1 .59.8l-.93.86 1.183-.683a.5.5 0 0 1 .627.761l-1.908 2.189 2.389-1.379a.5.5 0 0 1 .6.787l-1.537 1.532 1.69-.975a.5.5 0 0 1 .57.817l-.155.129.024-.013a.5.5 0 0 1 .618.771l-2.275 2.471 2.35-1.357a.5.5 0 0 1 .571.816l-.636.533.369-.213a.5.5 0 0 1 .578.811l-1.4 1.216 1.082-.624a.5.5 0 0 1 .574.813l-1.683 1.436 1.266-.731a.5.5 0 0 1 .559.826l-.876.686.336-.194a.5.5 0 0 1 .553.831l-1.162.886.527-.3a.5.5 0 0 1 .543.837l-1.697 1.228.926-.535a.5.5 0 1 1 .5.865l-9.292 5.37a.493.493 0 0 1 -.25.064z" fill="#56b38f"/><path d="m25.146 9.437a.491.491 0 0 1 -.326-.115l-.676-.6a.507.507 0 0 1 -.461-.141l-.615-.632-.134.078a.5.5 0 0 1 -.616-.093l-1.052-1.134-.921.532a.5.5 0 0 1 -.75-.443l.009-.5-1.436.828a.5.5 0 0 1 -.69-.67l.144-.268-2.594 1.5a.5.5 0 0 1 -.5-.865l4.118-2.377a.5.5 0 0 1 .6.074.5.5 0 0 1 .092.6l-.145.268.68-.392a.5.5 0 0 1 .75.443l-.01.5.5-.289a.5.5 0 0 1 .617.094l1.05 1.13.127-.073a.5.5 0 0 1 .608.085l.639.658a.516.516 0 0 1 .4.12l.846.745a.495.495 0 0 1 .034.856.562.562 0 0 1 -.288.081z" fill="#56b38f"/><path d="m18.835 36.38a.5.5 0 0 1 -.3-.9l1.733-1.331-3.6 2.077a.5.5 0 0 1 -.539-.839l2.071-1.472-3.47 2a.5.5 0 0 1 -.549-.833l2.343-1.757-3.586 2.075a.5.5 0 0 1 -.567-.819l1.856-1.521-2.881 1.663a.5.5 0 0 1 -.6-.794l1.954-1.866-3 1.737a.5.5 0 0 1 -.622-.767l1.944-2.168-3 1.73a.5.5 0 0 1 -.58-.809l.672-.589-1.03.594a.5.5 0 0 1 -.625-.763l1.791-2.039-2.513 1.45a.5.5 0 0 1 -.629-.758l1.871-2.167-2.457 1.417a.5.5 0 0 1 -.592-.8l1.125-1.063-1.274.736a.5.5 0 0 1 -.607-.783l1.666-1.7-1.832 1.062a.5.5 0 0 1 -.621-.768l2.221-2.463-2.372 1.369a.5.5 0 0 1 -.579-.808l1.043-.913-.837.482a.494.494 0 0 1 -.652-.137.5.5 0 0 1 .063-.663l1.855-1.71-1.61.93a.5.5 0 0 1 -.591-.8l2.537-2.357-2.16 1.248a.5.5 0 0 1 -.576-.813l2.671-2.291-2.1 1.211a.5.5 0 0 1 -.544-.837l.452-.329a.5.5 0 0 1 -.327-.911l5.945-4.055-5.044 2.915a.5.5 0 0 1 -.541-.839l5.9-4.22-4.585 2.647a.5.5 0 0 1 -.534-.844l1.317-.906a.5.5 0 0 1 -.527-.832l3.148-2.916a.5.5 0 0 1 -.25-.932l3.39-1.956a.5.5 0 0 1 .59.8l-2.933 2.715 6.955-4.015a.5.5 0 0 1 .533.845l-1.27.874 2.574-1.486a.5.5 0 0 1 .541.839l-5.9 4.218 7.679-4.435a.5.5 0 0 1 .532.846l-9.308 6.35a.463.463 0 0 1 .118.127.5.5 0 0 1 -.125.676l-1.15.837a.5.5 0 0 1 .208.866l-2.675 2.293 1.323-.763a.5.5 0 0 1 .591.8l-2.535 2.354 1.683-.972a.5.5 0 0 1 .589.8l-1.853 1.709 1.349-.779a.5.5 0 0 1 .579.808l-1.044.915.7-.4a.5.5 0 0 1 .621.768l-2.222 2.46 2.256-1.3a.5.5 0 0 1 .607.782l-1.665 1.7 1.813-1.046a.5.5 0 0 1 .593.8l-1.126 1.055 1.308-.755a.5.5 0 0 1 .629.759l-1.865 2.17 2.584-1.5a.5.5 0 0 1 .625.762l-1.791 2.038 2.782-1.6a.5.5 0 0 1 .58.808l-.67.588 1.328-.766a.5.5 0 0 1 .622.766l-1.943 2.167 3.9-2.25a.5.5 0 0 1 .595.794l-1.953 1.865 4.568-2.636a.5.5 0 0 1 .568.819l-1.855 1.521 5.513-3.183a.5.5 0 0 1 .55.833l-2.342 1.756 5.479-3.163a.5.5 0 0 1 .539.84l-2.079 1.472.934-.538a.5.5 0 0 1 .555.829l-1.73 1.329.572-.33a.5.5 0 0 1 .567.82l-.651.534a.5.5 0 0 1 .267.15.5.5 0 0 1 .043.624l-.488.7a.491.491 0 0 1 .13.148.5.5 0 0 1 -.183.682l-.97.56a.5.5 0 0 1 -.661-.718l.077-.111-2.422 1.4a.5.5 0 0 1 -.566-.819l.044-.037-1.831 1.058a.5.5 0 0 1 -.252.068z" fill="#56b38f"/><path d="m25.552 16.708c-.568-.051-.549-.473-.725-.99-.344-.446-.028-.748.136-1.172.709-1.677-1.856-3.012-3.191-1.935-.625-.261-1.139-.306-1.215-1.093-.832-1.716-4.189-1.041-4.37.917-.162.058-.324.119-.482.188-1.45-1.036-3.458.145-3.864 1.684.038.589.866 1.215.335 1.707a5.254 5.254 0 0 0 -.251.7 1.908 1.908 0 0 0 .046 3.794c-.177.194.1.449.153.668.413.576.029.947-.175 1.489-.289 1.618 1.988 2.684 3.272 1.722.675.257 1.172.379 1.256 1.18.9 1.6 4.168.947 4.331-.995.162-.06.325-.123.484-.193 1.451 1.038 3.461-.142 3.867-1.683-.038-.588-.866-1.214-.335-1.706a5.361 5.361 0 0 0 .246-.68c1.93-.178 2.49-3.247.482-3.602zm-2.7 7.36c-.007-.007.007-.007.029-.005-.009.002-.023.011-.028.005zm1.715-4.316c-.97.178-1.112 1.212-1.405 1.969.325.889.853 1.385-.132 2.23a2.752 2.752 0 0 0 -4.019 1.693c-1.3.191-.974-.977-1.717-1.57a2.786 2.786 0 0 0 -3.131 0c.037 0-.125.048-.123.053l.2-.241c-1.888-1.216.039-1.742-.62-2.989-.23-1.885-2.3-.736-1.882-3.016 0 .029.009-.333-.052-.34 1.256-.232 2.526-1.515 1.9-2.836-.5-.647-.187-1.242.459-1.618a2.754 2.754 0 0 0 3.932-1.7c.975-.2 1.168.493 1.418 1.241a2.738 2.738 0 0 0 3.466.3.055.055 0 0 0 0 .073l-.1.12c1.9 1.189-.184 1.9.717 3.209.445 1.77 2.285.523 1.787 3.125a.147.147 0 0 0 .008.025c-.249.089-.473.174-.705.272z" fill="#262626"/><path d="m45.737 36.164-.005-.005-.055.021a.173.173 0 0 0 .06-.016z" fill="#262626"/><path d="m37.206 46.807.034.031c.056-.021.1-.041.153-.058.102-.186-.043-.09-.187.027z" fill="#262626"/><path d="m49.05 39.821c-.313-.148-.641-.269-.966-.395a6.7 6.7 0 0 0 -.432-1.034c1.45-1.893-1.143-4.232-3-2.893a6.433 6.433 0 0 0 -.834-.337c-.33-2.432-4.248-2.287-4.594.074q-.319.113-.627.257c-1.956-1.4-4.719 1.174-3.216 3.137-.047-.006-.288.456-.273.422-.063.149-.1.3-.151.459a2.058 2.058 0 0 0 -.043 4.059 6.693 6.693 0 0 0 .434 1.038c-1.45 1.894 1.145 4.233 3 2.893a7.515 7.515 0 0 0 .836.342c.32 2.428 4.251 2.282 4.584-.075.214-.077.426-.165.632-.261 1.957 1.4 4.721-1.173 3.218-3.137.047.006.288-.457.273-.422.062-.148.1-.3.151-.457 1.733-.21 2.434-2.722 1.008-3.67zm-.808 2.479a.16.16 0 0 1 .017-.03c-.004.008-.013.016-.017.03zm-2.342-6.219c.116-.074.08-.047 0 0zm.053 10.751c.032-.006.309.133 0 0zm1.574-4.243c-.925.226-1.147 1.349-1.362 2.132.379.807.71 1.477-.215 2.11a2.622 2.622 0 0 0 -3.916 1.644c-.636-.032-1.121.089-1.265-.7a2.346 2.346 0 0 0 -3.374-1c-.044.054-.048.188-.153.058a.62.62 0 0 0 -.184.095c.036-.032.091-.078.15-.126-.162-.147-.43-.4-.353-.326-.383-.3-.739-.721-.35-1.168a2 2 0 0 0 -1.119-2.864c-.948-.068-.508-1.251-.687-1.723 1.276-.241 2.544-1.627 1.92-2.962-.546-.661.005-1.138.363-1.644a2.61 2.61 0 0 0 3.967-1.574c.982-.222 1.274.326 1.481 1.151a2.592 2.592 0 0 0 3.249.483c-.031 0-.041-.018 0-.084 0 .006.018.031.051.063a.871.871 0 0 0 .138-.061 1.092 1.092 0 0 1 -.133.066c2 1.257-.258 1.722.738 3.163.244 1.776 2.442.682 1.754 2.975-.235.093-.465.203-.702.292z" fill="#262626"/><path d="m45.106 24.011a24.2 24.2 0 0 0 -9.382.639c7.119-20.775-22.343-33.583-33.136-14.864-8.327 13.939 6.66 31.08 21.7 25.711-6.57 17.961 17.533 31.913 30.332 18.294 10.007-9.502 4.091-27.802-9.514-29.78zm-29.88 11.178c-20.433-3.289-15.971-41.12 5.732-28.632-23.65-1.49-16.82 32.243 5.547 21.714-.706 2.082-1.435 4.229-2.012 6.4a21.079 21.079 0 0 1 -9.267.518zm11.613-8.017c-16.207 8.882-28.239-12.811-11.039-19.602 11.977-2.27 15.706 10.568 11.039 19.602zm6.869 29.318c-19.742-11.777.519-29.136-4.519-43.994-4.039-6.29-12.206-10.496-19.679-8.521 8.417-5.741 20.728-1.186 24.438 8.07 2.944 6.864-.047 14.125-2.114 20.734-7.228 12.982 4.866 26.29 18.544 23.428a16.248 16.248 0 0 1 -16.67.283zm15.45-6.622c-12.329 9.738-22.549-5.563-15.943-17.292 12.509-6.799 25.733 5.724 15.943 17.292zm4.352 3.81c-4.113 3.613-10.463 2.23-14.717-.431 23.894 1.559 17.223-31.931-5.359-21.253.751-2.215 1.547-4.507 2.16-6.833 16.533-5.748 30.222 16.157 17.916 28.517z" fill="#262626"/></svg>